<svg id="eyes" xmlns="http://www.w3.org/2000/svg" width="20" height="20" viewBox="0 0 20 20">
  <g id="icon_action_visibility_24px" data-name="icon/action/visibility_24px">
    <rect id="Boundary" width="20" height="20" fill="none"/>
    <path id="_Color" data-name=" ↳Color" d="M9,11A10.387,10.387,0,0,1,3.5,9.457,8.912,8.912,0,0,1,0,5.5,8.911,8.911,0,0,1,3.5,1.543,10.388,10.388,0,0,1,9,0a10.388,10.388,0,0,1,5.5,1.543A8.912,8.912,0,0,1,18,5.5a8.912,8.912,0,0,1-3.5,3.958A10.387,10.387,0,0,1,9,11ZM9,1.833A3.9,3.9,0,0,0,4.909,5.5,3.9,3.9,0,0,0,9,9.167,3.9,3.9,0,0,0,13.091,5.5,3.9,3.9,0,0,0,9,1.833ZM9,7.7A2.34,2.34,0,0,1,6.546,5.5,2.34,2.34,0,0,1,9,3.3a2.341,2.341,0,0,1,2.455,2.2A2.341,2.341,0,0,1,9,7.7Z" transform="translate(1 4.5)" fill="#97a9b7"/>
  </g>
</svg>